# xmcd CD database file
#
# Track frame offsets:
#	150
#	23647
#	44560
#	59635
#
# Disc length: 1136 seconds
#
# Revision: 0
# Processed by: cddbd v1.5PL3 Copyright (c) Steve Scherf et al.
# Submitted via: CDex 1.51
#
DISCID=32046e04
DTITLE=坂本サトル - 天使達の歌
DYEAR=1999
DGENRE=JPop
TTITLE0=天使達の歌
TTITLE1=jolly
TTITLE2=Happy Birthday
TTITLE3=天使達の歌(ライブバージョン)
EXTD=YEAR: 1999
EXTT0=
EXTT1=
EXTT2=
EXTT3=
PLAYORDER=
